<svg width="32" height="32" viewBox="0 0 32 32" fill="none" xmlns="http://www.w3.org/2000/svg">
<path d="M18.6667 6.66665C18.6667 5.19998 17.4667 3.99998 16 3.99998H14.6667V2.66665C14.6667 1.93331 14.0667 1.33331 13.3333 1.33331H7.99999C7.26666 1.33331 6.66666 1.93331 6.66666 2.66665V3.99998H5.33332C3.86666 3.99998 2.66666 5.19998 2.66666 6.66665V26.6666C2.66666 28.1333 3.86666 29.3333 5.33332 29.3333H16C17.4667 29.3333 18.6667 28.1333 18.6667 26.6666H29.3333V6.66665H18.6667ZM26.6667 24H16V26.6666H5.33332V6.66665H9.33332V3.99998H12V6.66665H16V9.33331H26.6667V24ZM12 20H14.6667V22.6666H12V20ZM12 10.6666H14.6667V13.3333H12V10.6666ZM17.3333 20H20V22.6666H17.3333V20ZM17.3333 10.6666H20V13.3333H17.3333V10.6666ZM22.6667 20H25.3333V22.6666H22.6667V20ZM22.6667 10.6666H25.3333V13.3333H22.6667V10.6666Z" fill="white"/>
</svg>
