<svg width="32" height="32" viewBox="0 0 32 32" fill="none" xmlns="http://www.w3.org/2000/svg">
<path d="M25.3333 5.33335H24V2.66669H21.3333V5.33335H10.6667V2.66669H8V5.33335H6.66667C5.18667 5.33335 4.01333 6.53335 4.01333 8.00002L4 26.6667C4 28.1334 5.18667 29.3334 6.66667 29.3334H25.3333C26.8 29.3334 28 28.1334 28 26.6667V8.00002C28 6.53335 26.8 5.33335 25.3333 5.33335ZM25.3333 26.6667H6.66667V13.3334H25.3333V26.6667ZM25.3333 10.6667H6.66667V8.00002H25.3333V10.6667ZM12 18.6667H9.33333V16H12V18.6667ZM17.3333 18.6667H14.6667V16H17.3333V18.6667ZM22.6667 18.6667H20V16H22.6667V18.6667ZM12 24H9.33333V21.3334H12V24ZM17.3333 24H14.6667V21.3334H17.3333V24ZM22.6667 24H20V21.3334H22.6667V24Z" fill="#ffffff"/>
</svg>
