<svg width="32" height="32" viewBox="0 0 32 32" fill="none" xmlns="http://www.w3.org/2000/svg">
<path d="M18.8267 5.33335L21.2667 8.00002H26.6667V24H5.33332V8.00002H10.7333L13.1733 5.33335H18.8267ZM20 2.66669H12L9.55999 5.33335H5.33332C3.86666 5.33335 2.66666 6.53335 2.66666 8.00002V24C2.66666 25.4667 3.86666 26.6667 5.33332 26.6667H26.6667C28.1333 26.6667 29.3333 25.4667 29.3333 24V8.00002C29.3333 6.53335 28.1333 5.33335 26.6667 5.33335H22.44L20 2.66669ZM16 12C18.2 12 20 13.8 20 16C20 18.2 18.2 20 16 20C13.8 20 12 18.2 12 16C12 13.8 13.8 12 16 12ZM16 9.33335C12.32 9.33335 9.33332 12.32 9.33332 16C9.33332 19.68 12.32 22.6667 16 22.6667C19.68 22.6667 22.6667 19.68 22.6667 16C22.6667 12.32 19.68 9.33335 16 9.33335Z" fill="white"/>
</svg>
