<svg width="135" height="145" viewBox="0 0 135 145" fill="none" xmlns="http://www.w3.org/2000/svg">
<path fill-rule="evenodd" clip-rule="evenodd" d="M5.72949 0.5H72.6215L39.6215 33.5H0.229492L5.72949 0.5ZM8.27087 3.5L3.77087 30.5H38.3789L65.3789 3.5H8.27087Z" fill="black"/>
<path fill-rule="evenodd" clip-rule="evenodd" d="M68.3789 0.5H116.622L37.7725 79.3491L45.2363 33.5H35.3789L68.3789 0.5ZM69.6215 3.5L42.6215 30.5H48.7642L42.228 70.6509L109.379 3.5H69.6215Z" fill="black"/>
<path fill-rule="evenodd" clip-rule="evenodd" d="M112.379 0.5H134.771L129.271 33.5H79.3789L112.379 0.5ZM113.622 3.5L86.6215 30.5H126.73L131.23 3.5H113.622Z" fill="black"/>
<path fill-rule="evenodd" clip-rule="evenodd" d="M85.6963 27.1827L67.2833 144.5H27.751L38.5928 74.2863L85.6963 27.1827ZM41.4079 75.7138L31.2498 141.5H64.7174L81.3044 35.8173L41.4079 75.7138Z" fill="black"/>
</svg>
