<svg width="167" height="161" viewBox="0 0 167 161" fill="none" xmlns="http://www.w3.org/2000/svg">
<path fill-rule="evenodd" clip-rule="evenodd" d="M5.72949 0.5H72.6215L39.6215 33.5H0.229492L5.72949 0.5ZM8.27087 3.5L3.77087 30.5H38.3789L65.3789 3.5H8.27087Z" fill="black"/>
<path fill-rule="evenodd" clip-rule="evenodd" d="M84.3789 0.5H132.622L53.7725 79.3491L61.2363 33.5H51.3789L84.3789 0.5ZM85.6215 3.5L58.6215 30.5H64.7642L58.228 70.6509L125.379 3.5H85.6215Z" fill="black"/>
<path fill-rule="evenodd" clip-rule="evenodd" d="M144.379 0.5H166.771L161.271 33.5H111.379L144.379 0.5ZM145.622 3.5L118.622 30.5H158.73L163.23 3.5H145.622Z" fill="black"/>
<path fill-rule="evenodd" clip-rule="evenodd" d="M100.196 43.6827L81.7833 161H42.251L53.0928 90.7863L100.196 43.6827ZM55.9079 92.2138L45.7498 158H79.2174L95.8044 52.3173L55.9079 92.2138Z" fill="black"/>
</svg>
