<svg width="318" height="135" viewBox="0 0 318 135" fill="none" xmlns="http://www.w3.org/2000/svg">
<path d="M5.38672 97.7128L14.4927 39.7432H40.3473C44.8461 39.7432 48.4777 40.3736 51.242 41.6344C54.0063 42.8404 56.0118 44.5124 57.2585 46.6502C58.5051 48.7333 59.1285 51.0905 59.1285 53.7217C59.1285 57.2848 58.0986 60.2998 56.0389 62.7666C54.0334 65.2334 51.3504 66.9601 47.9899 67.9469C50.7 68.9884 52.7868 70.6055 54.2502 72.7982C55.7679 74.9361 56.5267 77.4577 56.5267 80.363C56.5267 85.9544 54.5755 90.2576 50.6729 93.2726C46.7703 96.2327 41.5127 97.7128 34.9 97.7128H5.38672ZM25.1435 62.7666H36.1195C41.9734 62.7666 44.9003 60.382 44.9003 55.6129C44.9003 54.078 44.3312 52.8994 43.1929 52.0772C42.0547 51.2549 40.266 50.8438 37.8269 50.8438H27.0135L25.1435 62.7666ZM21.4035 86.6122H34.0056C36.8241 86.6122 38.9109 85.9818 40.266 84.721C41.6211 83.4602 42.2986 81.6787 42.2986 79.3763C42.2986 75.7036 39.8866 73.8672 35.0626 73.8672H23.4361L21.4035 86.6122Z" fill="black"/>
<path d="M56.2354 97.7128L92.1716 39.7432H104.042L121.685 97.7128H107.375L104.367 85.9544H78.5939L71.7644 97.7128H56.2354ZM96.3181 55.5307L85.3421 74.3605H101.359L96.4807 55.5307H96.3181Z" fill="black"/>
<path d="M130.554 97.7128L139.66 39.7432H164.295C170.853 39.7432 175.867 41.2233 179.336 44.1834C182.859 47.0888 184.621 51.1179 184.621 56.2707C184.621 61.7525 183.184 66.0557 180.312 69.1803C177.493 72.25 173.78 74.2783 169.173 75.265C170.745 75.868 172.073 76.8547 173.157 78.2252C174.241 79.5408 175.162 81.1579 175.921 83.0765L181.45 97.7128H166.165L159.66 80.2808C159.118 78.7459 158.387 77.677 157.465 77.074C156.598 76.4162 155.378 76.0873 153.807 76.0873H148.928L145.514 97.7128H130.554ZM150.554 65.3978H161.368C167.384 65.3978 170.393 62.8214 170.393 57.6686C170.393 55.5307 169.688 53.941 168.279 52.8994C166.924 51.8579 164.755 51.3371 161.774 51.3371H152.75L150.554 65.3978Z" fill="black"/>
<path d="M274.928 99.5218C269.453 99.5218 264.684 98.5077 260.618 96.4794C256.553 94.3963 253.382 91.4362 251.106 87.599C248.884 83.7069 247.772 79.02 247.772 73.5383C247.772 66.8505 249.073 60.985 251.675 55.9418C254.277 50.8438 257.908 46.8695 262.57 44.019C267.285 41.1685 272.733 39.7432 278.912 39.7432C284.386 39.7432 289.156 40.7848 293.221 42.8678C297.286 44.8961 300.43 47.8562 302.652 51.7483C304.929 55.5855 306.067 60.2176 306.067 65.6445C306.067 72.3871 304.766 78.3074 302.165 83.4054C299.563 88.4486 295.931 92.3955 291.27 95.246C286.609 98.0965 281.161 99.5218 274.928 99.5218ZM275.091 86.8589C278.343 86.8589 281.107 85.9818 283.383 84.2277C285.714 82.4735 287.503 80.0341 288.75 76.9095C289.996 73.7301 290.62 70.0848 290.62 65.9734C290.62 61.3688 289.535 57.9701 287.367 55.7774C285.253 53.5298 282.354 52.4061 278.668 52.4061C275.47 52.4061 272.706 53.2832 270.375 55.0373C268.098 56.7915 266.337 59.2583 265.09 62.4377C263.898 65.5623 263.301 69.1803 263.301 73.2916C263.301 77.8963 264.358 81.3224 266.472 83.5699C268.586 85.7626 271.459 86.8589 275.091 86.8589Z" fill="black"/>
<path d="M17 32.3038L22.0454 2H199.886L169.613 32.3038H17Z" stroke="black" stroke-width="3"/>
<path d="M204.763 72.7089L275.399 2H216.103L185.83 32.3038H208.799L201.736 75.7393L204.763 72.7089Z" stroke="black" stroke-width="3"/>
<path d="M316 2H289.716L259.443 32.3038H310.955L316 2Z" stroke="black" stroke-width="3"/>
<path d="M193.12 132.304L199.296 94.5608L243.192 50.6203L229.952 132.304H193.12Z" stroke="black" stroke-width="3"/>
<path d="M0 135L5.14066 102.649H18.8185C22.7352 102.649 25.6574 103.49 27.5851 105.173C29.5435 106.825 30.5227 109.104 30.5227 112.01C30.5227 115.803 29.3599 118.725 27.0344 120.775C24.7394 122.824 21.4041 123.849 17.0284 123.849H10.2354L8.44537 135H0ZM11.2452 117.379H17.3497C20.7768 117.379 22.4904 115.834 22.4904 112.744C22.4904 110.327 20.8839 109.119 17.671 109.119H12.5304L11.2452 117.379Z" fill="black"/>
<path d="M34.1133 135L39.5563 102.649H54.2817C58.202 102.649 61.1989 103.475 63.2725 105.127C65.3784 106.748 66.4314 108.997 66.4314 111.872C66.4314 114.931 65.5728 117.333 63.8557 119.077C62.1709 120.79 59.9516 121.922 57.1976 122.472C58.1372 122.809 58.931 123.36 59.579 124.124C60.227 124.859 60.7777 125.761 61.2313 126.832L64.536 135H55.3995L51.5116 125.272C51.1876 124.415 50.7502 123.819 50.1994 123.482C49.6811 123.115 48.9521 122.931 48.0125 122.931H45.0966L43.0554 135H34.1133ZM46.0686 116.966H52.5322C56.1285 116.966 57.9266 115.528 57.9266 112.652C57.9266 111.459 57.5054 110.572 56.6631 109.991C55.8531 109.41 54.5571 109.119 52.7752 109.119H47.3807L46.0686 116.966Z" fill="black"/>
<path d="M86.0367 135C83.1704 135 80.6729 134.451 78.5444 133.354C76.4159 132.226 74.7557 130.624 73.5637 128.548C72.4001 126.441 71.8184 123.905 71.8184 120.938C71.8184 117.319 72.4995 114.144 73.8617 111.415C75.2239 108.656 77.1254 106.505 79.5661 104.963C82.0351 103.42 84.8873 102.649 88.1227 102.649C90.989 102.649 93.4865 103.212 95.615 104.34C97.7435 105.437 99.3895 107.039 100.553 109.146C101.745 111.222 102.341 113.729 102.341 116.666C102.341 120.315 101.66 123.519 100.298 126.278C98.9354 129.007 97.034 131.143 94.5933 132.686C92.1526 134.229 89.3004 135 86.0367 135ZM86.1219 128.147C87.8247 128.147 89.272 127.672 90.464 126.723C91.6843 125.774 92.6209 124.454 93.2736 122.763C93.9264 121.042 94.2527 119.069 94.2527 116.844C94.2527 114.352 93.6851 112.513 92.5499 111.326C91.4431 110.11 89.9248 109.502 87.9949 109.502C86.3205 109.502 84.8731 109.976 83.6528 110.926C82.4608 111.875 81.5385 113.21 80.8858 114.931C80.2614 116.622 79.9492 118.58 79.9492 120.805C79.9492 123.297 80.5026 125.151 81.6095 126.367C82.7163 127.554 84.2204 128.147 86.1219 128.147Z" fill="black"/>
<path d="M104.136 135L104.405 128.358L108.976 128.132C110.303 128.072 111.324 127.771 112.042 127.228C112.759 126.686 113.243 125.798 113.494 124.563L117.635 102.649H127.477L123.228 125.105C122.834 127.123 122.152 128.825 121.184 130.211C120.252 131.596 118.854 132.666 116.989 133.419C115.161 134.172 112.723 134.623 109.675 134.774L104.136 135Z" fill="black"/>
<path d="M129.272 135L134.181 102.649H156.204L155.231 109.165H140.947L140.019 115.314H153.286L152.268 121.83H139.002L137.984 128.484H152.224L151.251 135H129.272Z" fill="black"/>
<path d="M174.277 135C171.511 135 169.026 134.466 166.824 133.398C164.651 132.3 162.928 130.684 161.658 128.548C160.416 126.382 159.795 123.727 159.795 120.582C159.795 118.06 160.162 115.717 160.896 113.551C161.63 111.385 162.703 109.487 164.114 107.855C165.554 106.223 167.318 104.948 169.407 104.028C171.525 103.109 173.952 102.649 176.691 102.649C178.723 102.649 180.643 102.975 182.45 103.628C184.257 104.251 185.682 105.067 186.727 106.075L183.805 112.483C181.518 110.673 179.09 109.769 176.521 109.769C174.63 109.769 173.049 110.243 171.779 111.193C170.537 112.112 169.591 113.373 168.942 114.975C168.32 116.547 168.01 118.313 168.01 120.271C168.01 122.881 168.589 124.81 169.746 126.056C170.904 127.272 172.724 127.88 175.209 127.88C176.31 127.88 177.453 127.687 178.639 127.302C179.824 126.916 181.066 126.278 182.365 125.388L184.313 131.841C183.523 132.493 182.563 133.057 181.433 133.532C180.304 134.006 179.119 134.362 177.876 134.6C176.634 134.867 175.435 135 174.277 135Z" fill="black"/>
<path d="M250.338 134.294C248.24 134.294 246.181 133.971 244.163 133.324C242.145 132.646 240.356 131.628 238.795 130.271L241.217 123.581C242.858 124.809 244.54 125.682 246.262 126.199C247.984 126.716 249.585 126.975 251.065 126.975C252.599 126.975 253.769 126.684 254.576 126.102C255.411 125.52 255.828 124.761 255.828 123.824C255.828 123.081 255.572 122.45 255.061 121.933C254.576 121.416 253.796 121.028 252.72 120.77L248.078 119.413C246.033 118.863 244.405 117.813 243.194 116.262C242.01 114.711 241.418 112.788 241.418 110.494C241.418 108.038 241.97 105.97 243.073 104.289C244.203 102.576 245.683 101.284 247.513 100.411C249.37 99.5065 251.361 99.0541 253.487 99.0541C255.263 99.0541 257.065 99.3611 258.895 99.9751C260.752 100.589 262.434 101.559 263.94 102.883L261.398 109.233C260.187 108.199 258.855 107.472 257.402 107.052C255.976 106.6 254.657 106.373 253.446 106.373C251.966 106.373 250.796 106.68 249.935 107.294C249.101 107.876 248.684 108.636 248.684 109.573C248.684 111.027 249.625 112.029 251.509 112.578L256.151 113.887C258.357 114.501 260.066 115.6 261.276 117.183C262.487 118.734 263.093 120.608 263.093 122.806C263.093 124.745 262.743 126.441 262.043 127.895C261.344 129.317 260.402 130.513 259.218 131.483C258.034 132.42 256.675 133.131 255.141 133.615C253.608 134.068 252.007 134.294 250.338 134.294Z" fill="black"/>
</svg>
